HIERARCHY
ROOT RootJoint
{
    OFFSET   0.000000   0.000000   0.000000
    CHANNELS 6 Xposition Yposition Zposition Xrotation Yrotation Zrotation
    JOINT pelvis_lowerback
    {
        OFFSET   0.000000   0.093605   0.000000
        CHANNELS 3 Xrotation Yrotation Zrotation
        JOINT lowerback_torso
        {
            OFFSET   0.000000   0.100000   0.000000
            CHANNELS 3 Xrotation Yrotation Zrotation
            JOINT torso_head
            {
                OFFSET   0.000000   0.282350   0.000000
                CHANNELS 3 Xrotation Yrotation Zrotation
                End Site
                {
                    OFFSET   0.000000   0.192650   0.000000
                }
            }
            JOINT rTorso_Clavicle
            {
                OFFSET  -0.001000   0.157500   0.000000
                CHANNELS 3 Xrotation Yrotation Zrotation
                JOINT rShoulder
                {
                    OFFSET  -0.117647   0.000000   0.000000
                    CHANNELS 3 Xrotation Yrotation Zrotation
                    JOINT rElbow
                    {
                        OFFSET  -0.245000   0.000000   0.000000
                        CHANNELS 3 Xrotation Yrotation Zrotation
                        JOINT rWrist
                        {
                            OFFSET  -0.240000   0.000000   0.000000
                            CHANNELS 3 Xrotation Yrotation Zrotation
                            End Site
                            {
                                OFFSET  -0.116353  -0.002500   0.000000
                            }
                        }
                    }
                }
            }
            JOINT lTorso_Clavicle
            {
                OFFSET   0.001000   0.157500   0.000000
                CHANNELS 3 Xrotation Yrotation Zrotation
                JOINT lShoulder
                {
                    OFFSET   0.117647   0.000000   0.000000
                    CHANNELS 3 Xrotation Yrotation Zrotation
                    JOINT lElbow
                    {
                        OFFSET   0.245000   0.000000   0.000000
                        CHANNELS 3 Xrotation Yrotation Zrotation
                        JOINT lWrist
                        {
                            OFFSET   0.240000   0.000000   0.000000
                            CHANNELS 3 Xrotation Yrotation Zrotation
                            End Site
                            {
                                OFFSET   0.116353  -0.002500   0.000000
                            }
                        }
                    }
                }
            }
        }
    }
    JOINT rHip
    {
        OFFSET  -0.100000  -0.051395   0.000000
        CHANNELS 3 Xrotation Yrotation Zrotation
        JOINT rKnee
        {
            OFFSET   0.000000  -0.410000   0.000000
            CHANNELS 3 Xrotation Yrotation Zrotation
            JOINT rAnkle
            {
                OFFSET   0.000000  -0.390000   0.000000
                CHANNELS 3 Xrotation Yrotation Zrotation
                JOINT rToeJoint
                {
                    OFFSET   0.000000  -0.050000   0.130000
                    CHANNELS 3 Xrotation Yrotation Zrotation
                    End Site
                    {
                        OFFSET  -0.010000   0.002000   0.060000
                    }
                }
            }
        }
    }
    JOINT lHip
    {
        OFFSET   0.100000  -0.051395   0.000000
        CHANNELS 3 Xrotation Yrotation Zrotation
        JOINT lKnee
        {
            OFFSET   0.000000  -0.410000   0.000000
            CHANNELS 3 Xrotation Yrotation Zrotation
            JOINT lAnkle
            {
                OFFSET   0.000000  -0.390000   0.000000
                CHANNELS 3 Xrotation Yrotation Zrotation
                JOINT lToeJoint
                {
                    OFFSET   0.000000  -0.050000   0.130000
                    CHANNELS 3 Xrotation Yrotation Zrotation
                    End Site
                    {
                        OFFSET   0.010000   0.002000   0.060000
                    }
                }
            }
        }
    }
}
MOTION
Frames: 14
Frame Time:   0.008333
 -2.376719   0.925631   3.975860   0.000000   0.000000   0.000000   0.000000   0.000000   0.000000   0.000000   0.000000   0.000000   0.000000   0.000000   0.000000   0.000000   0.000000   0.000000   0.000000   0.000000   0.000000   0.000000   0.000000   0.000000   0.000000   0.000000   0.000000   0.000000   0.000000   0.000000   0.000000   0.000000   0.000000   0.000000   0.000000   0.000000   0.000000   0.000000   0.000000   0.000000   0.000000   0.000000   0.000000   0.000000   0.000000   0.000000   0.000000   0.000000   0.000000   0.000000   0.000000   0.000000   0.000000   0.000000   0.000000   0.000000   0.000000   0.000000   0.000000   0.000000   0.000000   0.000000   0.000000
 -2.376672   0.926127   3.976114  -0.489818   0.125211  -0.170687   0.500977  -0.072102   0.190320   0.153361  -0.126482   0.079763  -0.107626   0.193035   0.088914   0.079485  -0.445595  -0.020321   0.574028   0.162170   2.250524   0.035827   1.751036  -0.012943   0.283014  -0.605720  -2.710329   0.146834   0.257107  -0.452240   0.746021   0.012322  -2.087715   0.027835  -1.299274   0.012253   0.265231   0.471086   2.904694   0.381107   0.122406   0.112286   0.481964   0.000254   0.001035  -0.715491  -0.347978  -0.220007  -0.186674  -0.000451   0.000165   0.243348   0.047346   0.283417   1.215862  -0.001167   0.001838  -1.253204   0.180517   0.057904   0.280309  -0.000417   0.000861
 -2.376627   0.926994   3.976520  -1.026593   0.247467  -0.351678   0.964787  -0.157098   0.393797   0.355116  -0.270116   0.170890  -0.180908   0.379130   0.200684   0.159808  -0.839144   0.625713   1.124409   0.401648   5.027712   0.082097   3.450515  -0.021962   0.600539  -0.690376  -4.746990   0.297002   0.450043  -1.629526   1.473822  -0.062952  -4.763843   0.064132  -2.561063   0.021250   0.565858   0.575302   5.086220   0.761324   0.245232   0.169696   1.011839   0.000814   0.001934  -1.388276  -0.672484  -0.430129  -0.410164  -0.001010   0.000291   0.589019   0.108242   0.662372   2.540142  -0.003079   0.003659  -2.420995   0.353952   0.117725   0.500677  -0.000819   0.001371
 -2.376589   0.927835   3.977031  -1.539323   0.361160  -0.518122   1.375018  -0.252633   0.582706   0.536261  -0.421488   0.250762  -0.248646   0.552566   0.314409   0.239271  -1.176284   1.697954   1.648951   0.690628   8.152095   0.127075   5.048520  -0.027139   0.914728  -0.620764  -6.008710   0.440664   0.581287  -3.234843   2.179688  -0.212423  -7.816668   0.099707  -3.752846   0.027179   0.861756   0.539491   6.431137   1.087882   0.358667   0.158056   1.512475   0.001490   0.002488  -2.017591  -0.973684  -0.630200  -0.622784  -0.001510   0.000374   0.987006   0.172019   1.094653   3.825926  -0.005208   0.005090  -3.508756   0.516170   0.177742   0.704083  -0.001217   0.001698
 -2.376561   0.928369   3.977618  -2.016350   0.466114  -0.668381   1.738827  -0.357691   0.752034   0.688887  -0.579091   0.315789  -0.316429   0.714090   0.423777   0.320766  -1.474186   3.021492   2.149889   1.018389  11.511691   0.165525   6.543160  -0.029535   1.216369  -0.507711  -6.686594   0.576872   0.668471  -5.075319   2.864558  -0.428224 -11.119460   0.130439  -4.873075   0.030944   1.148081   0.438562   7.155007   1.356900   0.462639   0.086856   1.971007   0.002149   0.002756  -2.606931  -1.253419  -0.820491  -0.824498  -0.001932   0.000427   1.417043   0.237476   1.564842   5.050024  -0.007279   0.006170  -4.523855   0.667425   0.237373   0.886688  -0.001560   0.001870
 -2.376549   0.928381   3.978262  -2.458087   0.560904  -0.803750   2.064006  -0.470868   0.900020   0.817198  -0.741821   0.363058  -0.383763   0.864566   0.527976   0.406011  -1.746121   4.478965   2.628117   1.377319  15.029788   0.195455   7.937346  -0.030011   1.501591  -0.391738  -6.962219   0.705403   0.725552  -7.038185   3.519380  -0.699863 -14.549812   0.154551  -5.923364   0.033163   1.422855   0.304339   7.437443   1.573356   0.558140  -0.032116   2.388286   0.002719   0.002812  -3.158885  -1.513217  -1.001198  -1.015032  -0.002267   0.000460   1.868288   0.304385   2.062880   6.210359  -0.009149   0.006949  -5.471465   0.808299   0.296206   1.050078  -0.001831   0.001928
 -2.376596   0.927701   3.978944  -2.867559   0.643949  -0.923649   2.357386  -0.590449   1.020568   0.927059  -0.908299   0.380230  -0.449691   1.004729   0.629548   0.496476  -2.000973   5.997715   3.083536   1.761909  18.655321   0.216608   9.235684  -0.029204   1.768929  -0.290645  -6.964786   0.827716   0.762514  -9.084504   4.113800  -1.005165 -17.906267   0.171206  -6.907242   0.034084   1.685226   0.148613   7.356943   1.743465   0.646127  -0.187251   2.767746   0.003157   0.002722  -3.675768  -1.754524  -1.172582  -1.194374  -0.002509   0.000480   2.333024   0.372551   2.581324   7.308838  -0.010773   0.007472  -6.356093   0.939368   0.353876   1.196557  -0.002032   0.001904
 -2.376585   0.925609   3.979110  -2.963245   0.637215  -1.075104   2.440696  -0.644865   1.211272   0.972852  -1.069093   0.367690  -0.622364   0.973086   0.693967   0.699385  -2.138811   6.911759   3.723658   2.154985  22.076138   0.231253  10.680034  -0.033419   1.955276  -0.233164  -5.897250   1.039446   0.815198 -10.359087   4.457138  -1.253075 -21.330510   0.179818  -7.925973   0.033870   1.902187  -0.167773   6.301258   1.407731   0.445805  -0.308562   3.585570   0.004456   0.000494  -3.928230  -2.069203  -1.101859  -1.170204  -0.001959   0.000275   2.556916   0.510224   3.099329   7.628143  -0.009554   0.006483  -6.945445   1.288241   0.465566   1.446117  -0.002624   0.002584
 -2.376545   0.922322   3.979039  -3.023593   0.667789  -1.221725   2.558245  -0.704256   1.401330   1.015460  -1.221649   0.359461  -0.794528   0.934666   0.752856   0.881254  -2.241278   7.566818   4.292753   2.570131  25.135814   0.232632  12.041023  -0.036148   2.151687  -0.100378  -4.905105   1.227350   0.851878 -11.355060   4.761103  -1.503523 -24.405190   0.178914  -8.882094   0.033178   2.107565  -0.523997   5.312405   1.078154   0.236664  -0.425137   4.387859   0.005344  -0.001089  -4.155256  -2.367873  -1.037632  -1.105804  -0.001443  -0.000046   2.671427   0.636536   3.590339   7.789300  -0.008078   0.005477  -7.502485   1.614590   0.574495   1.672828  -0.002936   0.003050
 -2.376486   0.917963   3.978842  -3.074183   0.719415  -1.360065   2.700100  -0.752484   1.583678   1.072098  -1.357885   0.354878  -0.951195   0.898053   0.808111   1.040910  -2.321867   8.044563   4.795417   2.990932  27.893781   0.225663  13.317248  -0.037603   2.345031   0.061072  -4.134291   1.392426   0.877977 -12.152143   5.029224  -1.751491 -27.180040   0.172119  -9.776894   0.031923   2.303205  -0.879184   4.542854   0.795931   0.041972  -0.538590   5.145624   0.005853  -0.002061  -4.366052  -2.646968  -0.978896  -1.041695  -0.001036  -0.000272   2.701917   0.752660   4.050600   7.892344  -0.006718   0.004577  -8.025334   1.917995   0.679468   1.877202  -0.003041   0.003314
 -2.376343   0.918001   3.979131  -3.314142   0.455116  -1.254649   2.929828  -0.666447   1.563560   1.208934  -1.384809   0.269560  -1.081900   0.867934   0.854805   1.172710  -2.346500   8.738348   5.229878   3.434677  30.522471   0.217989  14.504511  -0.037171   2.534727   0.194482  -3.587827   1.559234   0.928851 -13.101781   5.276392  -1.969252 -29.791414   0.164050 -10.588124   0.030315   2.479407  -1.109024   4.013721   0.571589  -0.168321  -0.721771   5.999439   0.004871  -0.005375  -4.288649  -2.945409  -0.843440  -0.872358  -0.000874  -0.001365   2.727693   0.821528   3.922914   8.472510  -0.005386   0.002809  -8.259433   2.092536   0.562484   1.457629  -0.002927   0.002666
 -2.376375   0.918083   3.979696  -3.486822   0.244382  -1.200086   3.069737  -0.619290   1.608421   1.311742  -1.417241   0.196246  -1.200375   0.837267   0.890955   1.308409  -2.389864   9.224020   5.626641   3.860312  32.954366   0.205892  15.622922  -0.035439   2.715631   0.374858  -2.940316   1.733593   1.001923 -13.847940   5.511531  -2.168499 -32.227272   0.153236 -11.349850   0.028157   2.645412  -1.343364   3.381795   0.413716  -0.332447  -0.825590   6.681398   0.003863  -0.006647  -4.480406  -3.183706  -0.805107  -0.770896  -0.000687  -0.001640   2.763279   0.947965   3.860450   8.916438  -0.004330   0.001995  -8.544069   2.355799   0.617521   1.483545  -0.002352   0.002177
 -2.376578   0.918136   3.980372  -3.612579   0.076018  -1.167185   3.176517  -0.584225   1.672328   1.384272  -1.453992   0.141707  -1.317854   0.807794   0.927002   1.438040  -2.442409   9.589965   5.984486   4.259765  35.166451   0.191020  16.664869  -0.033105   2.887187   0.548043  -2.387155   1.899462   1.078018 -14.461808   5.727451  -2.352322 -34.448589   0.140770 -12.058643   0.025720   2.801660  -1.560454   2.835830   0.279792  -0.488925  -0.875935   7.304073   0.002884  -0.007152  -4.665210  -3.408819  -0.763754  -0.706560  -0.000563  -0.001623   2.788020   1.073763   3.835887   9.286640  -0.003517   0.001513  -8.822733   2.608120   0.678991   1.642696  -0.001972   0.002051
 -2.377050   0.918167   3.981018  -3.610802  -0.041696  -1.139988   3.205762  -0.542363   1.651240   1.392018  -1.460992   0.163631  -1.406856   0.701751   0.994559   1.561637  -2.562667   9.671910   6.396032   4.698574  36.898716   0.170620  17.618899  -0.031294   3.002375   0.810446  -1.333506   2.080416   1.155416 -14.612389   5.851597  -2.538157 -36.381521   0.127106 -12.819142   0.022944   2.923230  -1.801675   1.793520   0.146245  -0.568805  -0.903526   7.608061   0.002199  -0.006260  -4.720879  -3.508192  -0.717771  -0.586331  -0.000503  -0.001610   2.712983   1.127701   3.828694   9.564655  -0.002887   0.001098  -9.016757   2.807280   0.786001   1.616767  -0.001550   0.001607
